<?xml version="1.0" encoding="UTF-8" standalone="no"?>
<!-- Created with Inkscape (http://www.inkscape.org/) -->

<svg
   version="1.1"
   id="svg1"
   width="209.94568"
   height="213.42302"
   viewBox="0 0 209.94569 213.42301"
   sodipodi:docname="achiever_logo2.svg"
   inkscape:version="1.4.2 (f4327f4, 2025-05-13)"
   xmlns:inkscape="http://www.inkscape.org/namespaces/inkscape"
   xmlns:sodipodi="http://sodipodi.sourceforge.net/DTD/sodipodi-0.dtd"
   xmlns="http://www.w3.org/2000/svg"
   xmlns:svg="http://www.w3.org/2000/svg">
  <defs
     id="defs1" />
  <sodipodi:namedview
     id="namedview1"
     pagecolor="#FFFFFF"
     bordercolor="#999999"
     borderopacity="1"
     inkscape:showpageshadow="2"
     inkscape:pageopacity="0"
     inkscape:pagecheckerboard="0"
     inkscape:deskcolor="#d1d1d1"
     showgrid="false"
     inkscape:zoom="2.3005952"
     inkscape:cx="123.44632"
     inkscape:cy="118.01294"
     inkscape:window-width="1920"
     inkscape:window-height="991"
     inkscape:window-x="-9"
     inkscape:window-y="-9"
     inkscape:window-maximized="1"
     inkscape:current-layer="g1" />
  <g
     inkscape:groupmode="layer"
     inkscape:label="Image"
     id="g1"
     transform="translate(123.57189,-7.4765472)">
    <ellipse
       style="fill:#f2efe6;fill-opacity:1"
       id="path2"
       ry="106.71151"
       rx="104.97284"
       cy="114.18806"
       cx="-18.599052" />
    <path
       style="fill:#c30c23"
       d="m -101.42555,176.24553 c 0,-0.42534 0.11968,-0.82134 0.26596,-0.88 0.28543,-0.11448 7.414037,-13.26855 7.414037,-13.68077 0,-0.13569 0.288,-0.50734 0.64,-0.8259 0.352,-0.31856 0.64,-0.68894 0.64,-0.82307 0,-0.34264 1.14962,-2.71998 2.232633,-4.61693 0.502412,-0.88 1.74847,-3.256 2.769016,-5.28 1.020546,-2.024 2.10134,-4.04632 2.401764,-4.49404 0.300424,-0.44771 2.087057,-3.90371 3.970296,-7.68 1.883238,-3.77628 4.681953,-9.24196 6.219367,-12.14596 1.537413,-2.904 4.348816,-8.304 6.247562,-12.00001 1.898746,-3.696 5.282723,-10.248 7.51995,-14.559999 2.237226,-4.312 6.05131,-11.728 8.475741,-16.48 2.424431,-4.752 5.597393,-10.944 7.051026,-13.76 1.453633,-2.816 4.680514,-9.152 7.170846,-14.08 2.490333,-4.928 6.456985,-12.704 8.814784,-17.28 2.357798,-4.576 5.915931,-11.488 7.906962,-15.36 2.089925,-4.06432 3.808202,-7.04 4.06518,-7.04 0.552811,0 0.377863,-0.32235 3.994439,7.36 1.65709,3.52 4.7714887,10 6.9208857,14.4 2.149398,4.4 4.767008,9.78216 5.81690799,11.96036 1.04991002,2.17819 2.92377001,6.06619 4.16415001,8.64 1.24038,2.5738 2.938667,6.11964 3.773987,7.87964 0.83532,1.76 2.6736598,5.576 4.0852003,8.48 3.94241,8.11079 7.7593,16.07137 7.7593,16.18292 0,0.4312 18.31219,37.211179 33.15884,66.599409 7.64794,15.13874 8.76117,17.52754 8.76117,18.8 v 1.45768 h -81.120004 -81.12 z m 25.519998,-1.14569 c 7.574327,-8.8e-4 8.455076,-0.0561 8.960313,-0.56129 0.308173,-0.30818 1.780225,-4.16018 3.271228,-8.56 2.573727,-7.59486 2.707721,-8.12675 2.647793,-10.51039 -0.03472,-1.38089 -0.363807,-3.58228 -0.731309,-4.89198 -0.550263,-1.96102 -0.67194,-3.32511 -0.689455,-7.7293 -0.02001,-5.0309 0.02579,-5.45238 0.77236,-7.10802 1.011944,-2.24415 1.20004,-3.38286 1.40076,-8.48 0.184449,-4.68396 0.638034,-6.0045 2.122435,-6.17918 1.196549,-0.1408 1.632279,0.84323 1.445284,3.26396 -0.13036,1.68756 0.04828,3.64149 0.595644,6.51522 0.178177,0.93545 0.889831,0.92277 1.320996,-0.0235 0.412106,-0.90447 1.830259,-8.09871 2.64761,-13.43123 0.458236,-2.9896 1.173234,-4.66717 2.086944,-4.89649 2.323924,-0.58327 2.851828,0.61492 2.058078,4.67126 -1.122173,5.73469 -0.630073,9.80014 0.655613,5.41631 1.657307,-5.65096 2.223393,-7.60605 2.70693,-9.34892 0.58538,-2.10995 1.409936,-3.1074 2.568777,-3.1074 0.996664,0 2.081241,1.04477 2.076202,2 -0.0021,0.396 -0.218755,1.512 -0.48148,2.48001 -0.262726,0.968 -0.761825,3.31546 -1.109109,5.21657 -0.347284,1.90112 -1.078661,4.96099 -1.625281,6.79972 -0.54662,1.83873 -0.936318,3.51575 -0.865996,3.72672 0.173461,0.52038 3.470857,-6.39392 4.714208,-9.88521 1.464054,-4.11102 1.815806,-4.80727 2.731918,-5.40753 1.758946,-1.15251 3.110953,0.72298 2.57617,3.57362 -0.292686,1.56014 -2.50669,8.14257 -4.24344,12.61611 -1.254609,3.23163 -1.435044,4.0114 -1.480934,6.4 -0.03359,1.74835 0.06985,2.72 0.289559,2.72 0.187999,0 1.279779,-1.152 2.426178,-2.56 2.596672,-3.18922 4.511547,-4.452 6.775638,-4.46827 1.496829,-0.0108 1.657831,0.0613 1.947115,0.87191 0.283833,0.7953 0.182549,1.01924 -1.01312,2.24 -1.771853,1.80904 -4.56299,5.88478 -6.188248,9.03636 -1.273251,2.46899 -2.384112,3.80148 -8.136655,9.76 -1.819738,1.8849 -2.117204,2.3935 -3.171286,5.42221 -1.4673,4.21602 -3.343359,10.85064 -3.60219,12.73902 l -0.197745,1.4427 27.487183,-0.23952 c 15.1179507,-0.13173 27.8007007,-0.35871 28.1838807,-0.5044 0.817007,-0.31062 0.906497,0.22963 -1.20823,-7.29353 -1.94091,-6.90478 -4.10573999,-12.16289 -5.518205,-13.40305 -0.56265,-0.49401 -1.829385,-1.90288 -2.814967,-3.13082 -0.985582,-1.22793 -2.181072,-2.59231 -2.656644,-3.03195 -0.475571,-0.43964 -1.430701,-1.88731 -2.122511,-3.21706 -1.2428927,-2.38899 -3.6150537,-5.90786 -6.3276647,-9.38645 -1.496891,-1.91958 -1.540142,-2.52675 -0.222747,-3.12699 0.636294,-0.28992 1.090568,-0.25317 2.224708,0.17996 2.566863,0.9803 4.7436607,2.96726 7.7136937,7.04098 0.9603,1.31716 1.574127,0.83581 2.333097,-1.82955 1.147013,-4.02809 1.15479,-5.38354 0.07747,-13.50155 -0.186853,-1.408 -0.42206,-4.37919 -0.522682,-6.60265 -0.149906,-3.3125 -0.09192,-4.21869 0.321075,-5.01733 0.967707,-1.87134 2.83427999,-1.58846 3.33493001,0.50541 0.15709,0.65701 0.51622,2.85057 0.79807,4.87457 0.52756,3.78855 1.39521999,7.24949 1.73280999,6.9119 0.10518,-0.10518 0.18697,-3.50264 0.18175,-7.54992 -0.007,-5.38476 0.0975,-7.50507 0.38951,-7.90434 0.45881,-0.62746 2.50996,-0.74966 3.076344,-0.18328 0.1993,0.1993 0.62938,3.00009 0.95574,6.224 0.70987,7.01245 1.20982,10.23924 1.5535298,10.02681 0.39874,-0.24644 0.96101,-4.74588 1.14033,-9.12517 0.13224,-3.22974 0.26647,-4.07704 0.6970705,-4.40001 0.75596,-0.56702 1.59498,-0.49598 2.28436,0.19339 0.79559,0.7956 0.96594,2.80646 0.99183,11.7078 0.0174,5.98788 0.11058,7.47738 0.50544,8.08 0.69743,1.06442 1.03649,0.91899 1.44829,-0.62118 0.19999,-0.748 0.4943,-1.51967 0.65403,-1.71483 0.48059,-0.58721 1.56701,-4.00378 1.56701,-4.92794 0,-1.0173 1.24307,-2.99054 1.97242,-3.131 1.82296,-0.35107 2.05941,3.17687 0.56283,8.39754 -0.83074,2.89792 -1.00039,4.09377 -1.0847,7.64572 -0.055,2.31578 -0.34284,5.36251 -0.63972,6.77051 -0.49917,2.3674 -0.91228,3.67555 -2.6877,8.51073 -0.63329,1.7247 -0.63896,1.88989 -0.15384,4.48 0.27703,1.4791 1.60327,6.00127 2.9472,10.04927 l 2.44351,7.36 17.04241,-0.0291 c 9.37333,-0.016 17.13618,-0.12285 17.25079,-0.23746 0.19528,-0.19528 -2.8226,-6.35645 -8.96052,-18.29347 -12.82668,-24.94531 -16.98377,-33.08692 -22.71139,-44.48001 -2.38897,-4.752 -4.97314,-9.576 -5.74261,-10.72 -1.30914,-1.946349 -1.92774,-2.948149 -5.70469,-9.238439 -1.42918,-2.38021 -6.6274273,-10.8924 -10.3825673,-17.00157 -3.663268,-5.9597 -8.90095,-14.59085 -10.000634,-16.48 -0.614705,-1.056 -2.0096467,-3.36 -3.0998707,-5.12 -4.110409,-6.63562 -5.540489,-8.98199 -5.911607,-9.6993 -0.84328,-1.62993 -0.198404,-2.51492 -13.480062,18.4993 -2.836559,4.488 -5.828301,9.20306 -6.648317,10.47792 -0.820015,1.27485 -2.562636,4.01085 -3.872491,6.08 -3.905252,6.16904 -9.760945,15.34148 -12.411841,19.44208 -4.571076,7.070889 -5.325671,8.400439 -11.532742,20.320009 -2.104744,4.04178 -6.333825,12.00541 -9.516407,17.92 -1.278502,2.376 -4.262253,7.92 -6.630558,12.32 -2.368305,4.4 -5.611124,10.448 -7.206265,13.44 -1.595141,2.992 -3.856844,7.2259 -5.026007,9.40867 -1.184115,2.21068 -2.043929,4.18189 -1.941037,4.45002 0.158904,0.4141 0.954727,0.45215 5.695562,0.27231 3.030966,-0.11497 9.290848,-0.20948 13.910848,-0.21002 z m 54.018982,-59.72756 c 0.16156,-1.01035 0.07383,-1.35504 -0.47018,-1.84737 -1.031887,-0.93384 -0.856593,-1.6796 0.452524,-1.9252 0.715342,-0.13419 1.374349,-0.55259 1.820179,-1.15561 0.38437,-0.51989 0.80155,-0.94525 0.927067,-0.94525 0.125517,0 0.525581,0.504 0.889029,1.12 0.472167,0.80026 0.88689,1.12 1.452723,1.12 1.117154,0 1.298936,0.5093 0.530473,1.48624 -0.416965,0.53009 -0.660795,1.31122 -0.660795,2.11692 0,1.27622 -5.17e-4,1.27673 -1.04,1.03797 -1.188402,-0.27297 -1.588328,-0.26987 -3.04982,0.0236 l -1.04982,0.2108 z M -35.141099,99.277321 c -0.780558,-2.25755 -0.78065,-2.25847 -0.227228,-2.25847 0.292527,0 0.891867,-0.36 1.331867,-0.8 0.993423,-0.99342 1.197693,-0.99632 1.717853,-0.0244 0.2283,0.42659 0.769312,0.86451 1.202249,0.97317 0.729156,0.18301 0.753443,0.24965 0.329603,0.9044 -0.251656,0.38876 -0.548128,1.07514 -0.658827,1.52529 -0.181393,0.737629 -0.354388,0.818459 -1.75158,0.818459 -1.489476,0 -1.565755,-0.0447 -1.943937,-1.138459 z m 34.98136571,0.46311 c -0.05165,-0.17686 -0.15907,-0.68158 -0.23871,-1.12158 -0.0796,-0.44 -0.25145,-1.05387 -0.38179002,-1.36415 -0.1842,-0.4385 -0.0209,-0.63949 0.73320002,-0.90236 0.53359,-0.18601 1.04919999,-0.54414 1.14577999,-0.79585 0.23317,-0.60762 1.12683,-0.58523 1.36452,0.0342 0.10381,0.27051 0.61621,0.7129 1.13868,0.98307 0.86059,0.44503 0.90461,0.54174 0.46799,1.02817 -0.26507,0.29531 -0.52999,0.95921 -0.58871,1.47533 -0.10296,0.90485 -0.1683,0.939239 -1.82691,0.961579 -0.94607999,0.0128 -1.76239999,-0.121529 -1.81404999,-0.298399 z M -22.188809,98.678301 c -0.08857,-0.1433 0.0312,-1.1873 0.266141,-2.32 0.482297,-2.32522 0.416719,-2.52625 -1.39755,-4.28439 -2.007316,-1.94521 -1.922287,-2.06335 1.894668,-2.63258 l 1.76,-0.26248 1.12,-2.15912 c 0.616,-1.18752 1.228567,-2.15952 1.361259,-2.16 0.132693,-4.8e-4 0.688399,0.99913 1.234903,2.22136 1.060063,2.37079 0.923378,2.27785 4.042161,2.74848 0.747078,0.11273 1.448269,0.35051 1.558202,0.52838 0.109934,0.17788 -0.551227,1.08397 -1.469245,2.01353 l -1.669124,1.69012 0.228518,2.43863 c 0.269741,2.87853 0.197428,2.92091 -2.495269,1.46249 l -1.802247,-0.97614 -1.967419,0.97614 c -2.09795,1.0409 -2.411851,1.12518 -2.664998,0.71558 z m -13.190116,-16.19103 c -0.109323,-0.28489 -0.116212,-0.83368 -0.01531,-1.21953 0.121265,-0.46372 -0.08347,-1.05151 -0.603928,-1.73387 -0.433063,-0.56777 -0.787388,-1.10837 -0.787388,-1.20133 0,-0.093 0.58769,-0.32727 1.305977,-0.52068 0.901144,-0.24265 1.471515,-0.64263 1.84,-1.29031 0.704811,-1.23884 1.223108,-1.1876 1.7934,0.1773 0.341208,0.81663 0.667417,1.12133 1.204295,1.1249 1.53529,0.0102 1.732376,0.47781 0.780404,1.8515 -0.650248,0.93831 -0.822023,1.48005 -0.66618,2.10098 0.245751,0.97915 -0.528746,1.48096 -1.29904,0.84167 -0.46508,-0.38598 -1.699754,-0.32023 -2.796158,0.1489 -0.37671,0.16119 -0.621714,0.0706 -0.756072,-0.27953 z m 26.2871567,-0.94934 c 0.182373,-0.97213 0.07348,-1.35403 -0.66045,-2.31626 -0.9136027,-1.1978 -0.7536997,-1.70604 0.540496,-1.71792 0.972504,-0.009 1.564311,-0.39176 2.046225,-1.32367 0.607885,-1.17552 0.95931,-1.16141 1.592983,0.064 0.288337,0.55758 0.98638,1.18447 1.608218,1.44429 1.269396,0.53039 1.340203,0.77279 0.458746,1.5705 -0.457824,0.41432 -0.64,0.98559 -0.64,2.0069 0,1.3995 -0.01738,1.4232 -0.88,1.19944 -1.122807,-0.29125 -2.241072,-0.28984 -3.382298,0.004 -0.891966,0.22987 -0.899798,0.2192 -0.68392,-0.93153 z M -21.10555,67.948451 c 0,-1.14401 -0.167759,-1.70222 -0.64,-2.1296 -0.970012,-0.87784 -0.774814,-1.36096 0.646933,-1.60117 0.983439,-0.16615 1.400433,-0.43691 1.768218,-1.14812 0.616962,-1.19308 1.242565,-1.18333 1.743972,0.0272 0.294309,0.71052 0.71751,1.04425 1.638823,1.29233 0.68313,0.18395 1.242054,0.41611 1.242054,0.51592 0,0.0998 -0.36,0.60931 -0.8,1.13222 -0.494935,0.5882 -0.8,1.34814 -0.8,1.99286 0,1.37842 -0.220295,1.53678 -1.335551,0.96005 -0.835855,-0.43223 -1.039269,-0.43089 -1.928594,0.0128 -1.44215,0.71944 -1.535855,0.65511 -1.535855,-1.05444 z M 2.4663767,125.73886 c -0.0888,-0.22 -0.1614,-0.04 -0.1614,0.4 0,0.44 0.0726,0.62 0.1614,0.4 0.0888,-0.22 0.0888,-0.58 0,-0.8 z"
       id="path1"
       inkscape:label="path1" />
  </g>
</svg>
