<?xml version="1.0" standalone="no"?>
<!DOCTYPE svg PUBLIC "-//W3C//DTD SVG 20010904//EN"
 "http://www.w3.org/TR/2001/REC-SVG-20010904/DTD/svg10.dtd">
<svg version="1.0" xmlns="http://www.w3.org/2000/svg"
 width="600.000000pt" height="600.000000pt" viewBox="0 0 600.000000 600.000000"
 preserveAspectRatio="xMidYMid meet">
<g transform="translate(0.000000,600.000000) scale(0.050000,-0.050000)"
fill="#000000" stroke="none">
<path d="M6076 10859 c-28 -49 -172 -327 -321 -619 -711 -1397 -1465 -2869
-1651 -3220 -49 -93 -200 -386 -334 -650 -216 -423 -343 -668 -513 -990 -26
-49 -51 -94 -57 -100 -5 -5 -45 -77 -88 -160 -43 -82 -109 -206 -147 -275
l-68 -125 -354 -1 c-1024 -1 -1914 -24 -1966 -51 -130 -66 -166 -428 -177
-1756 -1 -143 -6 -265 -10 -272 -32 -51 -15 -816 19 -873 86 -145 -294 -137
4431 -87 853 9 2621 18 3930 19 2762 4 2629 -5 2688 189 43 143 48 2643 5
2740 -73 166 -4 157 -1228 154 l-1085 -3 -734 1465 c-629 1256 -1116 2245
-1116 2266 0 4 -100 212 -222 463 -123 251 -261 538 -308 637 -47 99 -192 401
-323 670 -131 270 -256 530 -279 579 l-42 89 -50 -89z m71 -1004 c82 -132 537
-877 657 -1075 77 -126 197 -324 268 -440 71 -115 152 -250 181 -300 54 -93
71 -120 241 -390 55 -88 202 -362 326 -610 231 -460 399 -790 874 -1716 149
-290 267 -529 263 -533 -4 -3 -308 -9 -676 -13 l-669 -8 -104 320 c-134 413
-140 458 -79 596 64 144 111 379 111 553 0 80 18 205 41 291 48 174 46 296 -5
306 -40 8 -71 -45 -88 -149 -6 -42 -29 -110 -50 -151 -21 -41 -38 -88 -38
-105 0 -37 -23 -40 -56 -7 -17 17 -24 128 -24 371 0 359 -12 425 -80 425 -52
0 -58 -15 -62 -172 -5 -178 -49 -487 -64 -448 -6 17 -21 147 -34 290 -35 405
-39 425 -86 437 -93 25 -100 -9 -89 -413 8 -339 -7 -473 -30 -264 -5 44 -23
157 -41 250 -18 94 -38 203 -44 243 -13 84 -62 114 -109 67 -36 -36 -36 -317
-1 -509 41 -221 14 -528 -51 -582 -20 -16 -45 4 -111 91 -91 121 -220 210
-305 210 -67 0 -71 -51 -7 -120 58 -63 197 -268 244 -360 19 -38 68 -107 108
-152 39 -46 112 -128 160 -183 59 -66 109 -154 148 -258 55 -148 178 -570 168
-579 -35 -29 -2194 -22 -2194 7 1 44 60 263 129 479 48 152 64 177 213 330 88
91 183 207 212 256 95 166 193 309 263 384 58 63 65 79 44 105 -61 74 -231
-10 -341 -168 -38 -55 -77 -100 -85 -101 -36 -1 -13 225 36 355 157 413 196
597 139 645 -45 37 -101 -21 -141 -147 -26 -83 -179 -437 -203 -471 -31 -44
-23 46 14 163 50 158 99 390 114 540 10 94 9 95 -50 95 -70 0 -65 10 -163
-325 -92 -318 -110 -336 -92 -95 26 346 27 329 -31 336 -69 8 -85 -36 -140
-366 -73 -443 -129 -504 -151 -163 -22 327 -114 276 -132 -72 -7 -140 -22
-230 -45 -275 -52 -101 -62 -341 -21 -541 55 -266 50 -315 -71 -669 l-109
-320 -89 -12 c-141 -19 -1060 -22 -1060 -4 0 10 12 35 27 57 15 21 72 125 127
229 56 105 173 325 261 490 87 165 207 390 265 500 58 110 134 250 170 310 35
61 77 137 93 170 169 348 569 1069 744 1340 257 398 554 864 854 1340 117 187
253 400 301 474 49 74 103 161 122 195 41 73 65 77 103 16z m5061 -5256 c118
-104 118 -107 104 -1376 -14 -1259 -15 -1271 -138 -1352 -76 -50 -40 -49
-3554 -62 -1821 -6 -3404 -14 -3520 -18 -115 -4 -936 -10 -1824 -14 l-1613 -7
-62 59 c-94 91 -106 167 -92 629 7 227 21 733 32 1125 22 815 21 810 109 911
l65 76 428 13 c235 7 886 14 1447 17 561 2 1052 6 1090 9 39 4 912 13 1940 21
1029 9 1873 18 1876 20 4 3 824 7 1823 9 l1817 3 72 -63z"/>
<path d="M6052 9070 c-18 -27 -51 -50 -72 -50 -48 0 -51 -26 -9 -61 19 -16 27
-43 21 -69 -10 -39 -3 -42 89 -42 88 0 98 4 87 38 -7 24 5 55 34 86 l45 48
-54 0 c-39 0 -59 14 -73 50 -10 28 -23 50 -27 50 -5 0 -23 -22 -41 -50z"/>
<path d="M5504 8552 c-16 -36 -39 -52 -74 -52 -57 0 -64 -23 -20 -60 17 -14
30 -51 30 -83 0 -53 4 -56 43 -36 30 17 55 17 90 1 43 -20 47 -17 47 36 0 31
14 68 30 82 44 37 37 60 -20 60 -27 0 -50 7 -50 16 0 61 -53 86 -76 36z"/>
<path d="M6526 8562 c-6 -22 -34 -43 -71 -50 -59 -12 -60 -13 -26 -51 23 -25
32 -58 26 -92 -9 -46 -5 -51 32 -39 57 17 77 17 118 0 29 -12 35 -3 35 48 0
38 12 68 30 75 44 17 36 43 -15 51 -25 3 -54 26 -65 51 -24 55 -50 58 -64 7z"/>
<path d="M6090 8140 c-33 -73 -44 -80 -133 -92 -113 -15 -118 -29 -37 -108 48
-47 58 -71 49 -115 -6 -30 -16 -75 -21 -100 l-9 -45 90 44 c90 44 91 44 166 5
41 -21 82 -41 91 -45 9 -5 10 37 3 93 -13 97 -11 102 59 164 84 74 82 82 -33
98 -76 10 -89 20 -125 96 -49 104 -55 104 -100 5z"/>
<path d="M5504 7800 c-13 -22 -38 -40 -54 -40 -34 0 -40 -31 -10 -50 11 -7 20
-28 20 -46 0 -24 17 -34 60 -34 43 0 60 10 60 34 0 18 9 39 20 46 30 19 24 50
-11 50 -16 0 -37 18 -45 40 -15 39 -15 39 -40 0z"/>
<path d="M6854 7813 c-7 -18 -33 -33 -57 -33 -35 0 -40 -5 -21 -24 13 -13 24
-43 24 -66 0 -35 12 -42 70 -42 60 0 70 7 70 46 0 25 9 46 20 46 11 0 20 9 20
20 0 11 -15 20 -33 20 -18 0 -43 15 -57 33 -22 30 -24 30 -36 0z"/>
<path d="M6030 7241 c-7 -22 -38 -44 -72 -52 -59 -12 -60 -14 -25 -53 21 -23
34 -62 30 -91 -6 -42 -1 -48 30 -35 46 19 68 19 112 0 28 -12 35 -4 35 41 0
31 15 72 33 92 31 35 31 37 -10 37 -27 0 -52 19 -67 50 -27 60 -49 64 -66 11z"/>
<path d="M6940 4557 c-841 -6 -1993 -18 -2560 -24 -566 -7 -1606 -18 -2310
-25 -1044 -10 -1288 -18 -1325 -40 -88 -56 -100 -115 -113 -548 -63 -2081 -65
-1946 20 -2031 l51 -50 1363 13 c750 7 1999 19 2774 26 776 7 2475 16 3776 19
1302 3 2377 8 2390 12 13 4 49 13 79 20 132 29 132 32 137 1334 4 1241 5 1225
-92 1289 -53 34 -573 35 -4190 5z m-2584 -577 c-10 -369 -17 -346 84 -298 173
84 454 23 518 -112 32 -66 35 -825 4 -856 -9 -9 -74 -13 -144 -10 l-128 6 -4
340 c-3 368 -17 410 -133 410 -160 0 -209 -111 -217 -490 l-6 -280 -127 -6
c-184 -9 -190 0 -176 255 32 581 20 1111 -25 1117 -37 6 -42 20 -42 112 0 135
-6 132 216 132 l189 0 -9 -320z m-1971 195 c26 -58 149 -359 274 -669 225
-559 228 -564 289 -570 61 -6 62 -9 68 -121 7 -137 14 -132 -222 -142 -203 -8
-181 -27 -276 235 l-62 172 -325 0 -326 0 -76 -185 c-102 -249 -85 -235 -291
-235 -176 0 -210 15 -161 71 9 10 35 64 58 119 23 55 73 168 112 250 76 164
391 856 406 894 6 14 -13 26 -46 30 -39 4 -56 17 -55 41 1 19 3 76 5 125 l3
90 289 0 288 0 48 -105z m2957 -26 c70 -36 105 -113 87 -192 -27 -126 -238
-185 -323 -92 -155 169 30 391 236 284z m3075 -440 c336 -198 71 -648 -382
-649 -101 0 -115 -17 -62 -70 57 -57 122 -70 348 -70 l219 0 0 -109 0 -108
-113 -14 c-608 -76 -958 243 -795 725 103 303 511 457 785 295z m-2115 -2
c348 -204 142 -624 -322 -655 -71 -5 -133 -10 -136 -11 -25 -6 49 -83 108
-110 62 -30 105 -33 290 -21 l218 14 0 -111 c0 -138 -12 -144 -331 -141 -422
3 -617 168 -613 520 2 256 148 476 347 528 48 12 96 26 107 31 48 20 273 -9
332 -44z m3148 -167 l0 -210 -125 -6 -125 -6 0 71 c0 87 -32 92 -122 17 -101
-85 -135 -186 -140 -416 -6 -266 -8 -270 -170 -270 l-131 0 10 205 c6 113 11
342 12 510 l1 305 140 0 140 0 0 -71 0 -71 66 50 c109 84 195 112 324 107
l120 -5 0 -210z m855 192 c24 -24 30 -97 17 -198 -1 -9 -94 -14 -207 -11 -113
2 -225 -3 -250 -11 -65 -21 -59 -88 10 -103 441 -95 570 -208 506 -444 -51
-190 -228 -274 -571 -271 -344 4 -348 7 -333 319 l6 144 97 13 c159 22 186 4
175 -113 -13 -137 126 -182 290 -94 83 44 1 177 -111 177 -354 0 -552 356
-299 537 116 82 603 122 670 55z m-6410 -23 c43 -9 45 -19 45 -199 l0 -190
-129 0 -129 0 -6 75 c-12 141 -222 84 -297 -82 -123 -270 5 -424 347 -418
l196 4 -6 -114 -6 -115 -110 -16 c-461 -71 -759 116 -764 479 -5 428 367 677
859 576z m3647 11 c24 0 23 -219 -3 -380 -66 -411 -350 -660 -754 -660 -135 0
-127 -20 -204 522 -82 577 -91 521 84 514 l145 -6 16 -90 c10 -49 37 -220 60
-378 48 -314 54 -325 155 -257 136 89 264 498 159 508 -16 1 -41 3 -55 5 -17
1 -25 38 -25 111 l0 109 175 7 c96 3 187 4 202 1 14 -3 35 -6 45 -6z m-2125
-18 c30 -18 14 -955 -16 -988 -8 -9 -73 -13 -143 -10 l-128 6 -4 369 c-3 353
-5 370 -45 384 -35 13 -41 33 -41 125 l0 110 125 7 c69 4 148 9 175 11 28 2
62 -4 77 -14z m1059 -1299 c5 -67 14 -83 45 -83 51 0 50 -41 -1 -54 -22 -6
-40 -23 -40 -38 0 -38 -73 -36 -87 2 -8 21 -41 30 -111 30 -161 0 -146 47 57
182 110 73 129 67 137 -39z m805 55 c12 -18 8 -36 -12 -51 -27 -20 -27 -24 0
-34 46 -17 40 -127 -8 -152 -60 -32 -272 -26 -300 8 -42 51 -5 68 124 57 88
-8 119 -5 105 10 -11 12 -65 24 -120 28 -119 7 -164 114 -66 156 65 28 256 13
277 -22z m2756 -4 c6 -35 -47 -114 -78 -114 -17 0 -38 123 -25 146 18 30 95 5
103 -32z m143 17 c0 -120 -90 -168 -95 -51 -3 72 2 80 46 80 30 0 49 -12 49
-29z m-6170 -51 c0 -24 -24 -29 -125 -23 -79 4 -125 -1 -125 -14 0 -12 55 -24
125 -27 133 -6 189 -86 108 -154 -56 -46 -302 -20 -309 33 -7 50 17 57 73 22
26 -16 58 -17 115 -2 l78 21 -96 2 c-155 3 -227 81 -149 159 37 37 305 23 305
-17z m4545 22 c14 -1 25 -21 25 -43 0 -38 -8 -40 -92 -28 -93 14 -127 -3 -128
-66 0 -30 132 -35 150 -5 21 35 70 22 70 -19 0 -64 -171 -100 -265 -56 -57 27
-49 191 10 213 39 15 75 15 230 4z m415 -22 c0 -22 -21 -28 -85 -23 -51 4 -85
-3 -85 -15 0 -12 23 -22 50 -22 28 0 50 -9 50 -20 0 -20 -27 -28 -73 -22 -13
2 -30 -6 -37 -17 -14 -23 5 -26 112 -22 50 3 77 -6 85 -28 10 -26 -8 -31 -118
-31 -71 0 -136 0 -144 0 -28 -1 -29 205 -1 223 45 30 246 11 246 -23z m399 13
c27 -19 30 -31 13 -42 -18 -11 -18 -21 -1 -42 12 -15 19 -48 16 -73 -10 -67
-297 -84 -297 -17 0 23 11 41 24 41 19 0 19 5 0 24 -31 31 -31 110 1 123 52
21 209 12 244 -14z m399 15 c36 -14 44 -68 10 -68 -16 0 -16 -8 1 -29 13 -16
21 -50 18 -75 -9 -61 -281 -72 -293 -12 -5 28 9 32 100 27 58 -3 84 -3 56 2
-131 21 -140 27 -140 84 0 31 6 62 13 70 17 16 193 17 235 1z m-8353 -88 c3
-72 -2 -80 -46 -80 -58 0 -65 48 -18 116 45 63 60 55 64 -36z m140 0 c3 -72
-2 -80 -46 -80 -58 0 -65 48 -18 116 45 63 60 55 64 -36z m481 37 c5 -29 -9
-32 -115 -22 -84 7 -121 4 -121 -12 0 -14 41 -23 109 -23 138 0 196 -72 120
-149 -59 -59 -309 -44 -309 19 0 50 45 70 70 30 14 -23 157 -15 165 9 3 9 -38
18 -91 20 -131 5 -199 89 -130 158 31 31 295 5 302 -30z m3738 11 c6 -18 -1
-40 -16 -50 -16 -10 -18 -18 -5 -18 36 0 45 -74 15 -117 -24 -35 -44 -39 -143
-29 -135 13 -159 29 -115 73 18 18 23 33 11 33 -30 0 -26 114 4 127 64 26 236
12 249 -19z m1746 -47 c0 -89 21 -110 91 -93 42 11 49 25 49 92 0 67 7 80 40
80 64 0 59 -210 -5 -227 -58 -16 -183 -16 -223 -1 -53 20 -45 228 8 228 33 0
40 -13 40 -79z m640 39 c0 -44 -40 -52 -100 -20 -57 31 -103 3 -96 -58 6 -56
106 -71 137 -20 20 32 59 4 59 -43 0 -42 -25 -48 -180 -40 -110 6 -105 1 -104
100 2 114 11 121 155 121 116 0 129 -4 129 -40z m-4865 -16 c5 -15 -14 -24
-52 -24 -57 0 -61 -5 -67 -85 -9 -121 -76 -136 -76 -16 0 50 -10 82 -25 84
-14 2 -36 4 -50 5 -76 7 -7 44 100 53 151 14 160 13 170 -17z m945 6 c0 -38 8
-37 82 1 95 49 168 31 83 -20 -81 -49 -82 -73 -5 -118 33 -19 60 -44 60 -54 0
-33 -88 -20 -140 21 -64 50 -80 50 -80 -1 0 -29 -11 -40 -35 -35 -36 6 -61
147 -37 208 14 38 72 36 72 -2z m396 -85 c-8 -146 -62 -167 -72 -28 -8 106 4
143 46 143 26 0 31 -21 26 -115z m224 29 l0 -87 85 2 c149 2 112 -58 -40 -65
l-125 -6 0 121 c0 108 4 121 40 121 34 0 40 -13 40 -86z m360 0 l0 -85 78 7
c65 7 126 -21 99 -45 -13 -12 -221 -28 -244 -19 -43 16 -16 228 29 228 31 0
38 -15 38 -86z m-2704 -33 c8 -114 -25 -141 -179 -141 -131 0 -146 14 -140
128 7 112 10 114 170 108 l143 -6 6 -89z m399 74 c-4 -14 -52 -30 -107 -37
-54 -6 -73 -13 -42 -15 66 -3 71 -73 6 -73 -21 0 -45 -21 -55 -47 -39 -105
-99 27 -68 150 11 43 22 47 143 47 96 0 129 -7 123 -25z"/>
<path d="M2097 3782 c-42 -102 -72 -121 -186 -122 l-59 0 67 -69 c69 -71 69
-72 11 -216 -10 -24 -5 -35 16 -35 17 0 34 -10 38 -22 5 -14 42 -5 102 24 l94
46 91 -44 c49 -24 95 -44 101 -44 10 0 -2 85 -24 163 -6 21 20 61 70 107 103
96 91 130 -48 130 -104 0 -106 1 -137 77 -47 120 -88 121 -136 5z"/>
<path d="M7988 3452 c-118 -118 -72 -191 98 -153 192 43 230 221 47 221 -61 0
-91 -14 -145 -68z"/>
<path d="M5899 3439 c-32 -33 -59 -68 -59 -78 0 -10 -5 -32 -12 -49 -10 -26 4
-32 82 -32 119 0 227 50 242 113 30 119 -149 152 -253 46z"/>
<path d="M6330 2360 c-35 -39 -35 -40 17 -40 40 0 53 10 53 40 0 22 -8 40 -17
40 -9 0 -33 -18 -53 -40z"/>
<path d="M7050 2401 c14 -24 147 -21 162 2 6 9 -31 17 -82 17 -54 0 -87 -8
-80 -19z"/>
<path d="M9590 2380 c7 -11 34 -20 60 -20 26 0 53 9 60 20 7 12 -17 20 -60 20
-43 0 -67 -8 -60 -20z"/>
<path d="M2269 2298 c-18 -57 13 -82 93 -74 57 5 69 15 74 61 9 74 -144 86
-167 13z"/>
</g>
</svg>
